<svg width="718" height="454" viewBox="0 0 718 454" fill="none" xmlns="http://www.w3.org/2000/svg">
<rect width="718" height="454" fill="white"/>
<g clip-path="url(#clip0_0_1)">
<path d="M271.986 71.4765C271.492 72.1143 270.808 72.5793 270.033 72.8052C269.259 73.031 268.432 73.0061 267.672 72.734C267.441 72.6656 267.215 72.5829 266.994 72.4864C267.243 69.8191 267.119 67.1301 266.626 64.497C266.433 66.7603 265.879 68.9782 264.987 71.0672C264.259 70.3376 263.664 69.4875 263.227 68.5545C262.413 66.6238 261.873 64.5886 261.624 62.5082C260.419 55.4201 259.231 48.0461 261.196 41.1192C264.075 31.0002 273.153 23.7257 276.945 13.908L278.813 12.231C282.011 17.6764 282.153 24.443 280.849 30.6177C279.552 36.8047 276.94 42.6114 274.874 48.578C272.808 54.5445 271.261 60.891 272.219 67.1344C272.439 68.6044 272.775 70.2201 271.986 71.4765Z" fill="#2F2E41"/>
<path d="M712 233C712 336.952 612.972 424.579 477.844 451.481C455.899 455.839 433.604 458.529 411.183 459.525C410.093 459.576 409.002 459.626 407.904 459.662C402.069 459.885 396.19 459.998 390.267 460C379.968 460 369.792 459.662 359.737 458.986C354.159 458.619 348.628 458.151 343.144 457.583C289.805 452.057 240.719 437.3 199.26 415.679C194.08 412.981 189.021 410.175 184.085 407.261C175.046 401.947 166.319 396.192 157.941 390.022C102.561 349.256 148.733 262.24 177.596 207.458C255.497 59.6022 212.581 6 390.267 6C567.952 6 712 107.628 712 233Z" fill="url(#paint0_linear_0_1)"/>
<path d="M230.469 157.098L218.295 212.779L271.469 230.098L263.65 157.098H230.469Z" fill="#FFB6B6"/>
<path d="M660.721 453H688V342.531C687.964 314.022 675.126 286.69 652.304 266.531C629.481 246.372 598.538 235.032 566.262 235H312.738C280.462 235.032 249.519 246.372 226.696 266.531C203.874 286.69 191.036 314.022 191 342.531V453H218.279V377.531C218.316 348.757 231.273 321.171 254.307 300.824C277.342 280.477 308.573 269.032 341.149 269H537.851C570.427 269.032 601.658 280.477 624.693 300.824C647.727 321.171 660.684 348.757 660.721 377.531V453Z" fill="#E6E6E6"/>
<path d="M312.894 394.806L287.214 387.031C285.544 380.169 284.702 373.131 284.705 366.068C284.717 364.473 285.183 362.914 286.049 361.574C286.915 360.234 288.144 359.169 289.594 358.502C291.043 357.835 292.652 357.595 294.233 357.81C295.814 358.024 297.301 358.684 298.52 359.713C312.293 371.527 332.468 377.831 345.488 391.293C350.876 396.951 354.923 403.749 357.327 411.183C359.731 418.618 360.431 426.498 359.376 434.239L364.997 452.42C352.416 451.512 340.182 447.887 329.138 441.796C318.093 435.705 308.5 427.291 301.02 417.136C296.88 411.397 293.48 405.159 290.898 398.571C301.79 397.335 312.894 394.806 312.894 394.806Z" fill="#F2F2F2"/>
<path d="M379.823 424.579L392.921 420.614C392.938 420.544 392.955 420.475 392.971 420.405C393.334 418.803 393.219 417.13 392.642 415.592C392.064 414.054 391.049 412.72 389.721 411.752C388.393 410.785 386.812 410.228 385.171 410.15C383.53 410.071 381.902 410.475 380.489 411.311C374.543 414.843 367.941 417.885 363.199 422.788C360.451 425.673 358.387 429.14 357.161 432.932C355.935 436.724 355.578 440.743 356.116 444.692L353.249 453.964C359.666 453.501 365.905 451.653 371.538 448.546C377.172 445.439 382.064 441.148 385.879 435.968C387.991 433.041 389.725 429.86 391.042 426.499C385.487 425.869 379.823 424.579 379.823 424.579Z" fill="#F2F2F2"/>
<path d="M515.849 153.13H464.843C464.121 153.131 463.43 153.419 462.92 153.929C462.411 154.44 462.125 155.133 462.126 155.854V236.428H518.573V155.854C518.573 155.496 518.503 155.142 518.366 154.811C518.229 154.481 518.028 154.18 517.775 153.927C517.522 153.674 517.222 153.474 516.891 153.337C516.561 153.2 516.206 153.13 515.849 153.13ZM490.517 198.911C488.922 198.904 487.395 198.267 486.267 197.139C485.139 196.011 484.502 194.483 484.494 192.888V183.595C484.497 181.999 485.132 180.469 486.261 179.341C487.391 178.213 488.921 177.579 490.517 177.579C492.113 177.579 493.644 178.213 494.773 179.341C495.903 180.469 496.538 181.999 496.54 183.595V192.888C496.533 194.483 495.896 196.011 494.768 197.139C493.64 198.267 492.112 198.904 490.517 198.911Z" fill="#3F3D56"/>
<path d="M630.625 0H341.375C338.89 0.00360076 336.507 0.905037 334.75 2.50673C332.993 4.10842 332.004 6.27973 332 8.54487V186.455C332.002 188.721 332.991 190.893 334.748 192.495C336.506 194.097 338.889 194.998 341.375 195H630.625C633.111 194.998 635.494 194.097 637.252 192.495C639.009 190.893 639.998 188.721 640 186.455V8.54487C639.996 6.27974 639.007 4.10842 637.25 2.50673C635.493 0.905039 633.11 0.00361675 630.625 0Z" fill="#3F3D56"/>
<path d="M627.96 6H342.04C340.702 6.00261 339.421 6.48185 338.476 7.33259C337.531 8.18334 337 9.3361 337 10.538V182.471C337.002 183.672 337.534 184.823 338.479 185.671C339.423 186.52 340.704 186.998 342.04 187H627.96C629.296 186.998 630.577 186.52 631.521 185.671C632.466 184.823 632.998 183.672 633 182.471V10.5379C633 9.33607 632.469 8.18333 631.524 7.33259C630.579 6.48185 629.298 6.00261 627.96 6Z" fill="white"/>
<path d="M431.951 233.851V241.625C431.951 242.027 432.112 242.413 432.397 242.698C432.681 242.983 433.068 243.143 433.47 243.144H487.228C487.631 243.142 488.016 242.982 488.301 242.697C488.585 242.412 488.746 242.027 488.748 241.625V233.851H431.951Z" fill="#3F3D56"/>
<path d="M526.73 245.849H399.181C398.832 245.849 398.488 245.771 398.172 245.621C397.857 245.471 397.579 245.253 397.359 244.981C397.14 244.71 396.983 244.393 396.901 244.054C396.819 243.715 396.814 243.361 396.885 243.02L398.865 233.62C398.977 233.094 399.266 232.623 399.684 232.284C400.102 231.945 400.622 231.759 401.16 231.757H524.752C525.289 231.759 525.81 231.945 526.228 232.284C526.645 232.623 526.935 233.094 527.047 233.62L529.026 243.02C529.098 243.361 529.093 243.715 529.011 244.054C528.929 244.393 528.772 244.71 528.552 244.981C528.332 245.253 528.055 245.471 527.739 245.621C527.424 245.771 527.079 245.849 526.73 245.849Z" fill="#3F3D56"/>
<path d="M405.506 233.45H402.554C402.285 233.45 402.066 233.668 402.066 233.938V235.318C402.066 235.588 402.285 235.807 402.554 235.807H405.506C405.776 235.807 405.994 235.588 405.994 235.318V233.938C405.994 233.668 405.776 233.45 405.506 233.45Z" fill="#E6E6E6"/>
<path d="M413.363 233.45H410.411C410.141 233.45 409.923 233.668 409.923 233.938V235.318C409.923 235.588 410.141 235.807 410.411 235.807H413.363C413.633 235.807 413.851 235.588 413.851 235.318V233.938C413.851 233.668 413.633 233.45 413.363 233.45Z" fill="#E6E6E6"/>
<path d="M421.22 233.45H418.268C417.998 233.45 417.779 233.668 417.779 233.938V235.318C417.779 235.588 417.998 235.807 418.268 235.807H421.22C421.489 235.807 421.708 235.588 421.708 235.318V233.938C421.708 233.668 421.489 233.45 421.22 233.45Z" fill="#E6E6E6"/>
<path d="M429.076 233.45H426.124C425.855 233.45 425.636 233.668 425.636 233.938V235.318C425.636 235.588 425.855 235.807 426.124 235.807H429.076C429.346 235.807 429.565 235.588 429.565 235.318V233.938C429.565 233.668 429.346 233.45 429.076 233.45Z" fill="#E6E6E6"/>
<path d="M436.933 233.45H433.981C433.712 233.45 433.493 233.668 433.493 233.938V235.318C433.493 235.588 433.712 235.807 433.981 235.807H436.933C437.203 235.807 437.421 235.588 437.421 235.318V233.938C437.421 233.668 437.203 233.45 436.933 233.45Z" fill="#E6E6E6"/>
<path d="M444.79 233.45H441.838C441.568 233.45 441.35 233.668 441.35 233.938V235.318C441.35 235.588 441.568 235.807 441.838 235.807H444.79C445.06 235.807 445.278 235.588 445.278 235.318V233.938C445.278 233.668 445.06 233.45 444.79 233.45Z" fill="#E6E6E6"/>
<path d="M452.647 233.45H449.695C449.425 233.45 449.207 233.668 449.207 233.938V235.318C449.207 235.588 449.425 235.807 449.695 235.807H452.647C452.916 235.807 453.135 235.588 453.135 235.318V233.938C453.135 233.668 452.916 233.45 452.647 233.45Z" fill="#E6E6E6"/>
<path d="M460.503 233.45H457.551C457.282 233.45 457.063 233.668 457.063 233.938V235.318C457.063 235.588 457.282 235.807 457.551 235.807H460.503C460.773 235.807 460.992 235.588 460.992 235.318V233.938C460.992 233.668 460.773 233.45 460.503 233.45Z" fill="#E6E6E6"/>
<path d="M468.36 233.45H465.408C465.139 233.45 464.92 233.668 464.92 233.938V235.318C464.92 235.588 465.139 235.807 465.408 235.807H468.36C468.63 235.807 468.848 235.588 468.848 235.318V233.938C468.848 233.668 468.63 233.45 468.36 233.45Z" fill="#E6E6E6"/>
<path d="M476.217 233.45H473.265C472.995 233.45 472.777 233.668 472.777 233.938V235.318C472.777 235.588 472.995 235.807 473.265 235.807H476.217C476.487 235.807 476.705 235.588 476.705 235.318V233.938C476.705 233.668 476.487 233.45 476.217 233.45Z" fill="#E6E6E6"/>
<path d="M484.074 233.45H481.122C480.852 233.45 480.634 233.668 480.634 233.938V235.318C480.634 235.588 480.852 235.807 481.122 235.807H484.074C484.343 235.807 484.562 235.588 484.562 235.318V233.938C484.562 233.668 484.343 233.45 484.074 233.45Z" fill="#E6E6E6"/>
<path d="M491.931 233.45H488.979C488.709 233.45 488.49 233.668 488.49 233.938V235.318C488.49 235.588 488.709 235.807 488.979 235.807H491.931C492.2 235.807 492.419 235.588 492.419 235.318V233.938C492.419 233.668 492.2 233.45 491.931 233.45Z" fill="#E6E6E6"/>
<path d="M499.787 233.45H496.835C496.566 233.45 496.347 233.668 496.347 233.938V235.318C496.347 235.588 496.566 235.807 496.835 235.807H499.787C500.057 235.807 500.275 235.588 500.275 235.318V233.938C500.275 233.668 500.057 233.45 499.787 233.45Z" fill="#E6E6E6"/>
<path d="M507.644 233.45H504.692C504.422 233.45 504.204 233.668 504.204 233.938V235.318C504.204 235.588 504.422 235.807 504.692 235.807H507.644C507.914 235.807 508.132 235.588 508.132 235.318V233.938C508.132 233.668 507.914 233.45 507.644 233.45Z" fill="#E6E6E6"/>
<path d="M515.501 233.45H512.549C512.279 233.45 512.061 233.668 512.061 233.938V235.318C512.061 235.588 512.279 235.807 512.549 235.807H515.501C515.77 235.807 515.989 235.588 515.989 235.318V233.938C515.989 233.668 515.77 233.45 515.501 233.45Z" fill="#E6E6E6"/>
<path d="M523.358 233.45H520.406C520.136 233.45 519.917 233.668 519.917 233.938V235.318C519.917 235.588 520.136 235.807 520.406 235.807H523.358C523.627 235.807 523.846 235.588 523.846 235.318V233.938C523.846 233.668 523.627 233.45 523.358 233.45Z" fill="#E6E6E6"/>
<path d="M405.413 237.378H402.461C402.192 237.378 401.973 237.597 401.973 237.866V239.247C401.973 239.516 402.192 239.735 402.461 239.735H405.413C405.683 239.735 405.901 239.516 405.901 239.247V237.866C405.901 237.597 405.683 237.378 405.413 237.378Z" fill="#E6E6E6"/>
<path d="M413.27 237.378H410.318C410.048 237.378 409.83 237.597 409.83 237.866V239.247C409.83 239.516 410.048 239.735 410.318 239.735H413.27C413.54 239.735 413.758 239.516 413.758 239.247V237.866C413.758 237.597 413.54 237.378 413.27 237.378Z" fill="#E6E6E6"/>
<path d="M421.127 237.378H418.175C417.905 237.378 417.687 237.597 417.687 237.866V239.247C417.687 239.516 417.905 239.735 418.175 239.735H421.127C421.396 239.735 421.615 239.516 421.615 239.247V237.866C421.615 237.597 421.396 237.378 421.127 237.378Z" fill="#E6E6E6"/>
<path d="M428.984 237.378H426.032C425.762 237.378 425.543 237.597 425.543 237.866V239.247C425.543 239.516 425.762 239.735 426.032 239.735H428.984C429.253 239.735 429.472 239.516 429.472 239.247V237.866C429.472 237.597 429.253 237.378 428.984 237.378Z" fill="#E6E6E6"/>
<path d="M436.84 237.378H433.888C433.619 237.378 433.4 237.597 433.4 237.866V239.247C433.4 239.516 433.619 239.735 433.888 239.735H436.84C437.11 239.735 437.329 239.516 437.329 239.247V237.866C437.329 237.597 437.11 237.378 436.84 237.378Z" fill="#E6E6E6"/>
<path d="M444.697 237.378H441.745C441.475 237.378 441.257 237.597 441.257 237.866V239.247C441.257 239.516 441.475 239.735 441.745 239.735H444.697C444.967 239.735 445.185 239.516 445.185 239.247V237.866C445.185 237.597 444.967 237.378 444.697 237.378Z" fill="#E6E6E6"/>
<path d="M452.554 237.378H449.602C449.332 237.378 449.114 237.597 449.114 237.866V239.247C449.114 239.516 449.332 239.735 449.602 239.735H452.554C452.824 239.735 453.042 239.516 453.042 239.247V237.866C453.042 237.597 452.824 237.378 452.554 237.378Z" fill="#E6E6E6"/>
<path d="M460.411 237.378H457.459C457.189 237.378 456.97 237.597 456.97 237.866V239.247C456.97 239.516 457.189 239.735 457.459 239.735H460.411C460.68 239.735 460.899 239.516 460.899 239.247V237.866C460.899 237.597 460.68 237.378 460.411 237.378Z" fill="#E6E6E6"/>
<path d="M468.267 237.378H465.315C465.046 237.378 464.827 237.597 464.827 237.866V239.247C464.827 239.516 465.046 239.735 465.315 239.735H468.267C468.537 239.735 468.756 239.516 468.756 239.247V237.866C468.756 237.597 468.537 237.378 468.267 237.378Z" fill="#E6E6E6"/>
<path d="M476.124 237.378H473.172C472.903 237.378 472.684 237.597 472.684 237.866V239.247C472.684 239.516 472.903 239.735 473.172 239.735H476.124C476.394 239.735 476.612 239.516 476.612 239.247V237.866C476.612 237.597 476.394 237.378 476.124 237.378Z" fill="#E6E6E6"/>
<path d="M483.981 237.378H481.029C480.759 237.378 480.541 237.597 480.541 237.866V239.247C480.541 239.516 480.759 239.735 481.029 239.735H483.981C484.251 239.735 484.469 239.516 484.469 239.247V237.866C484.469 237.597 484.251 237.378 483.981 237.378Z" fill="#E6E6E6"/>
<path d="M491.838 237.378H488.886C488.616 237.378 488.398 237.597 488.398 237.866V239.247C488.398 239.516 488.616 239.735 488.886 239.735H491.838C492.107 239.735 492.326 239.516 492.326 239.247V237.866C492.326 237.597 492.107 237.378 491.838 237.378Z" fill="#E6E6E6"/>
<path d="M499.694 237.378H496.742C496.473 237.378 496.254 237.597 496.254 237.866V239.247C496.254 239.516 496.473 239.735 496.742 239.735H499.694C499.964 239.735 500.183 239.516 500.183 239.247V237.866C500.183 237.597 499.964 237.378 499.694 237.378Z" fill="#E6E6E6"/>
<path d="M507.551 237.378H504.599C504.33 237.378 504.111 237.597 504.111 237.866V239.247C504.111 239.516 504.33 239.735 504.599 239.735H507.551C507.821 239.735 508.039 239.516 508.039 239.247V237.866C508.039 237.597 507.821 237.378 507.551 237.378Z" fill="#E6E6E6"/>
<path d="M515.408 237.378H512.456C512.186 237.378 511.968 237.597 511.968 237.866V239.247C511.968 239.516 512.186 239.735 512.456 239.735H515.408C515.678 239.735 515.896 239.516 515.896 239.247V237.866C515.896 237.597 515.678 237.378 515.408 237.378Z" fill="#E6E6E6"/>
<path d="M523.265 237.378H520.313C520.043 237.378 519.825 237.597 519.825 237.866V239.247C519.825 239.516 520.043 239.735 520.313 239.735H523.265C523.534 239.735 523.753 239.516 523.753 239.247V237.866C523.753 237.597 523.534 237.378 523.265 237.378Z" fill="#E6E6E6"/>
<path d="M470.624 242.092H440.174C439.904 242.092 439.686 242.311 439.686 242.58V243.961C439.686 244.231 439.904 244.449 440.174 244.449H470.624C470.894 244.449 471.113 244.231 471.113 243.961V242.58C471.113 242.311 470.894 242.092 470.624 242.092Z" fill="#E6E6E6"/>
<path d="M183.897 368.973L174.522 374.778L146.903 340.828L160.739 332.262L183.897 368.973Z" fill="#FFB6B6"/>
<path d="M191.991 381.099L184.449 384.466L179.925 377.947L179.656 386.605L159.654 395.534C158.696 395.962 157.625 396.073 156.599 395.849C155.573 395.626 154.646 395.08 153.952 394.292C153.258 393.505 152.834 392.515 152.742 391.469C152.65 390.424 152.895 389.376 153.441 388.479L164.489 370.317L161.275 363.119L178.523 356.622L191.991 381.099Z" fill="#2F2E41"/>
<path d="M157.635 362.442L173.469 347.098C161.705 318.069 160.765 300.076 144.457 264.967C183.15 272.881 210.813 272.4 242.813 265.304C253.646 262.94 281.598 241.348 279.3 230.277C279.193 229.76 279.066 229.247 278.919 228.739C275.485 217.028 277.903 199.094 270.469 186.098C256.714 180.912 235.816 198.423 219.469 209.098C211.586 214.245 217.356 221.259 211.469 223.098L188.9 230.424L133.527 221.481C130.851 221.075 128.121 221.203 125.495 221.858C122.868 222.512 120.398 223.679 118.225 225.293C116.052 226.907 114.219 228.935 112.834 231.26C111.448 233.585 110.536 236.161 110.151 238.84C110.057 239.441 109.989 240.046 109.947 240.653C112.495 254.757 115.151 268.49 118.01 281.527C118.933 285.735 117.375 293.802 120.846 293.922C124.317 294.042 122.919 302.386 124 306.465C130.654 331.579 134.863 343.733 157.635 362.442Z" fill="#2F2E41"/>
<path d="M127.329 429.745L117.562 424.647L133.015 383.711L147.43 391.235L127.329 429.745Z" fill="#FFB6B6"/>
<path d="M125.701 399.184L141.362 409.967C160.557 382.207 173.02 345.113 182.301 303.607C218.44 287.842 250.062 269.806 272.098 245.613C275.717 241.557 277.614 236.252 277.389 230.821C277.163 225.39 274.832 220.26 270.889 216.518C270.503 216.157 270.104 215.811 269.693 215.48C260.148 207.877 238.95 212.251 225.401 205.897L201.197 239.396L203.979 247.199L195.559 251.298L188.45 254.759L180.312 258.721L153.633 271.708C151.215 272.917 149.059 274.593 147.292 276.639C145.524 278.685 144.179 281.061 143.334 283.629C142.489 286.198 142.161 288.908 142.369 291.604C142.576 294.3 143.316 296.928 144.544 299.337C144.814 299.883 145.107 300.416 145.422 300.937L135.514 350.297C135.514 350.297 138.24 358.89 133.951 358.086C129.661 357.282 131.998 367.811 131.998 367.811L125.701 399.184Z" fill="#2F2E41"/>
<path d="M121.414 452.305L114.093 448.484L116.394 440.89L109.439 446.055L90.0206 435.921C89.0898 435.435 88.3386 434.664 87.8767 433.721C87.4149 432.779 87.2665 431.713 87.4533 430.68C87.6401 429.646 88.1522 428.7 88.915 427.978C89.6777 427.257 90.6511 426.798 91.6931 426.669L112.789 424.053L116.437 417.065L132.239 426.551L121.414 452.305Z" fill="#2F2E41"/>
<path d="M334.892 237.703L323.469 210.098L314.469 215.098L319.904 243.18C319.359 244.959 319.322 246.855 319.796 248.654C320.27 250.453 321.237 252.084 322.587 253.364C323.937 254.644 325.617 255.522 327.439 255.899C329.261 256.277 331.152 256.138 332.9 255.5C334.647 254.861 336.182 253.748 337.331 252.285C338.481 250.822 339.2 249.067 339.407 247.218C339.613 245.369 339.301 243.499 338.503 241.818C337.705 240.138 336.455 238.713 334.892 237.703Z" fill="#FFB6B6"/>
<path d="M143.208 19.4069L160.589 43.7065L168.222 36.7973L156.565 10.677C156.692 8.82087 156.299 6.96607 155.43 5.32112C154.561 3.67617 153.25 2.3063 151.645 1.36554C150.039 0.424765 148.204 -0.0496167 146.344 -0.00427696C144.484 0.0410627 142.673 0.604326 141.116 1.62219C139.558 2.64005 138.316 4.07215 137.528 5.7575C136.74 7.44285 136.437 9.31462 136.655 11.1624C136.872 13.0102 137.601 14.7607 138.758 16.2171C139.916 17.6736 141.457 18.7782 143.208 19.4069H143.208Z" fill="#FFB6B6"/>
<path d="M221.697 173.421C210.423 190.907 251.725 229.007 273.469 220.098C277.276 218.538 290.373 213.385 281.421 206.241C272.469 199.098 282.459 207.092 282.695 202.442C282.853 199.333 280.446 192.513 282.957 192.805C285.469 193.098 286.91 185.834 281.44 183.984C279.538 183.305 277.87 182.097 276.63 180.503C275.39 178.909 274.63 176.994 274.44 174.984C273.917 155.817 280.408 135.806 280.408 135.806L306.906 203.541C306.906 203.541 306.71 215.26 310.089 211.679C313.469 208.098 313.223 219.688 313.223 219.688C313.223 219.688 318.247 223.195 315.358 225.146C312.469 227.098 318.469 233.098 318.469 233.098L332.469 232.098C332.469 232.098 332.249 221.698 329.859 219.398C327.469 217.098 328.643 213.479 328.643 213.479C328.643 213.479 323.714 208.895 326.592 203.496C329.469 198.098 305.64 101.535 305.64 101.535C304.686 96.8888 302.465 92.5974 299.224 89.1348C295.983 85.6722 291.847 83.1733 287.275 81.9142L272.154 77.7509L269.469 67.0977H248.177L244.469 74.0977L210.469 71.0977C210.469 71.0977 176.826 40.4878 178.469 38.0977C180.111 35.7076 174.896 30.1119 174.896 30.1119C174.896 30.1119 170.442 28.6542 172.955 27.8759C175.469 27.0976 170.718 25.2982 170.718 25.2982C170.718 25.2982 166.318 24.1421 168.394 22.6199C170.469 21.0977 161.469 20.0977 161.469 20.0977L149.791 29.6252L152.151 33.6271C152.151 33.6271 150.712 39.0765 152.59 37.0871C154.468 35.0977 154.822 40.8711 154.822 40.8711C154.822 40.8711 155.781 47.193 161.469 49.0977C167.156 51.0024 171.469 69.0977 171.469 69.0977L219.469 109.098C212.158 117.489 213.898 126.264 220.374 135.239L221.697 173.421Z" fill="#00FFFF"/>
<path d="M258.343 60.0195C271.076 60.0195 281.398 49.6971 281.398 36.9638C281.398 24.2305 271.076 13.9081 258.343 13.9081C245.609 13.9081 235.287 24.2305 235.287 36.9638C235.287 49.6971 245.609 60.0195 258.343 60.0195Z" fill="#FFB6B6"/>
<path d="M278.469 30.0977C277.879 30.2677 269.219 31.3977 265.469 32.0977C261.789 32.7877 261.149 28.0977 258.139 28.9777C258.14 28.9572 258.137 28.9366 258.129 28.9177C257.662 26.4327 256.865 24.0213 255.759 21.7477C256.16 23.9253 256.217 26.1523 255.929 28.3477C255.927 28.4048 255.92 28.4617 255.909 28.5177C255.899 28.6177 255.879 28.7077 255.869 28.8077C252.689 27.4077 250.669 28.6577 248.469 29.0977C246.009 29.5877 244.089 30.6677 245.469 39.0977C248.299 56.4377 263.019 62.6277 260.469 74.0977C259.969 76.3677 258.709 79.2077 257.129 79.9177C256.662 77.4327 255.865 75.0213 254.759 72.7477C255.16 74.9253 255.217 77.1523 254.929 79.3477C252.479 76.6977 250.709 67.4377 242.469 60.0977C240.439 58.2977 230.269 47.6177 229.049 45.0977C229.423 47.1125 229.604 49.1585 229.589 51.2077C229.591 52.5792 229.497 53.9492 229.309 55.3077C229.309 55.3952 229.299 55.4824 229.279 55.5677C229.269 55.7277 229.239 55.8677 229.219 56.0177C229.199 56.1877 229.169 56.3477 229.139 56.5177C225.809 56.0377 222.859 55.4577 221.469 54.0977C214.709 47.5177 222.959 34.6977 227.469 23.0977C233.919 6.48767 252.649 4.27768 254.469 4.09768C262.489 3.28768 276.039 5.00768 280.469 14.0977C283.569 20.4677 281.589 29.1977 278.469 30.0977Z" fill="#2F2E41"/>
<path d="M229.854 33.8469L246.555 7.86667C242.552 5.54308 237.994 4.34751 233.367 4.40706C231.06 4.45499 228.79 4.98838 226.703 5.97247C224.617 6.95656 222.761 8.36926 221.257 10.1185C217.847 14.3577 217.261 20.3503 218.539 25.6392C218.981 27.4658 227.385 21.0388 225.385 24.0388C223.743 26.3876 221.059 36.2603 220.385 39.0388C219.302 43.5106 216.322 48.1009 218.976 51.8593C222.115 56.3038 227.716 58.513 233.153 58.7373C238.589 58.9617 243.94 57.4551 249.107 55.7486L229.854 33.8469Z" fill="#2F2E41"/>
<path d="M236.271 32.8223C236.03 32.822 235.797 32.7346 235.615 32.5761C235.433 32.4177 235.315 32.1988 235.281 31.96C235.248 31.7211 235.302 31.4783 235.434 31.2762C235.566 31.0742 235.766 30.9265 235.998 30.8604C236.26 30.4277 236.153 28.6069 236.066 27.1358C235.741 21.6118 235.197 12.3668 244.172 6.12599C244.39 5.9746 244.659 5.91589 244.92 5.96278C245.181 6.00966 245.412 6.1583 245.564 6.37599C245.715 6.59368 245.774 6.86258 245.727 7.12356C245.68 7.38454 245.531 7.6162 245.314 7.76759C237.259 13.3687 237.743 21.583 238.063 27.0181C238.245 30.1255 238.378 32.3701 236.493 32.7974C236.42 32.814 236.346 32.8224 236.271 32.8223Z" fill="#00FFFF"/>
<path d="M5.24436e-06 451.951C-0.000929715 452.265 0.123182 452.567 0.345022 452.791C0.566861 453.014 0.86826 453.14 1.18293 453.141H716.48C716.796 453.141 717.098 453.015 717.322 452.792C717.545 452.569 717.67 452.266 717.67 451.951C717.67 451.635 717.545 451.332 717.322 451.109C717.098 450.886 716.796 450.761 716.48 450.761H1.19004C1.03422 450.76 0.879853 450.79 0.735723 450.85C0.591593 450.909 0.460529 450.996 0.350027 451.106C0.239524 451.215 0.151746 451.346 0.0916953 451.49C0.0316442 451.634 0.000493399 451.788 3.57619e-05 451.944L5.24436e-06 451.951Z" fill="#CCCCCC"/>
</g>
<defs>
<linearGradient id="paint0_linear_0_1" x1="422" y1="6" x2="192.19" y2="607.818" gradientUnits="userSpaceOnUse">
<stop stop-color="#DC31CB"/>
<stop offset="1" stop-color="#F2F2F2" stop-opacity="0"/>
</linearGradient>
<clipPath id="clip0_0_1">
<rect width="717.67" height="453.964" fill="white"/>
</clipPath>
</defs>
</svg>
